<?xml version="1.0" encoding="iso-8859-1"?>
<!-- Uploaded to: SVG Repo, www.svgrepo.com, Generator: SVG Repo Mixer Tools -->
<svg height="800px" width="800px" version="1.1" id="Capa_1" xmlns="http://www.w3.org/2000/svg" xmlns:xlink="http://www.w3.org/1999/xlink" 
	 viewBox="0 0 290.676 290.676" xml:space="preserve">
<g>
	<g>
		<path style="fill:#010002;" d="M214.65,26.582c-2.96-3.174-8.216-3.741-11.767-1.235l-83.608,58.827l-2.255-0.257
			c-2.619-0.298-5.257-0.453-7.829-0.453c-32.34,0-49.692,23.45-50.414,24.446c-2.578,3.568-2.202,8.449,0.901,11.594l51.184,51.834
			l-80.093,80.099c-3.509,3.514-3.509,9.231,0,12.745c3.383,3.389,9.332,3.389,12.721,0l80.028-80.022l48.021,48.612
			c2.816,2.864,7.465,3.473,10.967,1.438c21.355-12.548,19.911-53.296,18.3-70.23l-0.233-2.423l60.003-74.24
			c2.798-3.467,2.619-8.533-0.412-11.791L214.65,26.582z M188.229,157.848l0.698,7.262c2.643,27.865-1.528,49.943-10.627,57.527
			l-50.611-51.238l0,0l-57.67-58.398c4.38-4.953,17.68-17.596,39.172-17.596c2.124,0,4.302,0.125,6.474,0.376l6.76,0.77
			l85.219-59.961L249.687,81.8L188.229,157.848z"/>
		<path style="fill:#010002;" d="M277.648,59.275l-45.539-48.97C226.005,3.759,217.174,0,207.895,0
			c-6.868,0-13.36,2.023-18.754,5.836l-76.507,53.827c-1.152-0.042-2.297-0.066-3.437-0.066c-44.453,0-68.744,32.931-69.759,34.333
			c-9.428,13.056-8.055,30.861,3.264,42.341l34.518,34.954L13.883,234.57c-12.805,12.811-12.799,33.671,0.012,46.488
			c6.206,6.206,14.458,9.619,23.241,9.619c8.789,0,17.041-3.419,23.235-9.619l63.046-63.04l31.135,31.523
			c6.08,6.158,14.649,9.69,23.515,9.69c5.854,0,11.564-1.534,16.528-4.439c28.247-16.594,32.46-54.764,30.556-85.666l53.988-66.799
			C289.355,89.676,288.711,71.173,277.648,59.275z M269.855,94.82l-56.948,70.469c2.017,24.214,1.068,64.275-24.357,79.21
			c-8.115,4.756-18.933,3.318-25.502-3.347l-39.578-40.068l-71.537,71.531c-3.944,3.95-9.201,6.122-14.798,6.122
			s-10.848-2.172-14.798-6.122c-8.163-8.169-8.163-21.457-0.006-29.62l71.716-71.716l-42.854-43.391
			c-7.208-7.315-8.079-18.652-2.076-26.97c0.871-1.205,21.719-29.387,60.086-29.387c2.267,0,4.577,0.101,6.886,0.298l79.926-56.232
			c8.252-5.836,20.46-4.565,27.376,2.852l45.521,48.952C275.954,74.98,276.365,86.77,269.855,94.82z"/>
	</g>
</g>
</svg>